<svg xmlns="http://www.w3.org/2000/svg" xmlns:xlink="http://www.w3.org/1999/xlink" width="500" zoomAndPan="magnify" viewBox="0 0 375 374.999991" height="500" preserveAspectRatio="xMidYMid meet" version="1.0"><defs><g/><clipPath id="id1"><path d="M 54.644531 87.050781 L 204.492188 87.050781 L 204.492188 202.550781 L 54.644531 202.550781 Z M 54.644531 87.050781 " clip-rule="nonzero"/></clipPath><clipPath id="id2"><path d="M 189.914062 87.050781 L 339.761719 87.050781 L 339.761719 202.550781 L 189.914062 202.550781 Z M 189.914062 87.050781 " clip-rule="nonzero"/></clipPath><clipPath id="id3"><path d="M 116 147 L 279 147 L 279 222.863281 L 116 222.863281 Z M 116 147 " clip-rule="nonzero"/></clipPath><clipPath id="id4"><path d="M 99.324219 219.515625 L 278 219.515625 L 278 222.863281 L 99.324219 222.863281 Z M 99.324219 219.515625 " clip-rule="nonzero"/></clipPath><clipPath id="id5"><path d="M 113 146 L 280 146 L 280 222.863281 L 113 222.863281 Z M 113 146 " clip-rule="nonzero"/></clipPath></defs><g clip-path="url(#id1)"><path fill="#ff1616" d="M 187.496094 87.039062 L 204.597656 106.585938 L 160.941406 144.78125 L 204.597656 182.980469 L 187.496094 202.527344 L 121.503906 144.78125 Z M 199.363281 183.328125 L 155.308594 144.78125 L 199.363281 106.234375 L 187.144531 92.273438 L 127.136719 144.78125 L 187.144531 197.289062 Z M 120.710938 87.039062 L 137.8125 106.585938 L 94.160156 144.78125 L 137.8125 182.980469 L 120.710938 202.527344 L 54.71875 144.78125 Z M 132.578125 183.328125 L 88.523438 144.78125 L 132.578125 106.234375 L 120.363281 92.273438 L 60.351562 144.78125 L 120.363281 197.289062 Z M 132.578125 183.328125 " fill-opacity="1" fill-rule="nonzero"/></g><g clip-path="url(#id2)"><path fill="#000000" d="M 322.761719 87.039062 L 339.863281 106.585938 L 296.210938 144.78125 L 339.863281 182.980469 L 322.761719 202.527344 L 256.769531 144.78125 Z M 334.628906 183.328125 L 290.574219 144.78125 L 334.628906 106.234375 L 322.414062 92.273438 L 262.402344 144.78125 L 322.414062 197.289062 Z M 255.976562 87.039062 L 273.082031 106.585938 L 229.425781 144.78125 L 273.082031 182.980469 L 255.976562 202.527344 L 189.984375 144.78125 Z M 267.84375 183.328125 L 223.792969 144.78125 L 267.84375 106.234375 L 255.628906 92.273438 L 195.621094 144.78125 L 255.628906 197.289062 Z M 267.84375 183.328125 " fill-opacity="1" fill-rule="nonzero"/></g><path fill="#ff1616" d="M 272.617188 215.609375 C 272.617188 215.609375 276.703125 211.402344 276.90625 208.96875 C 277.113281 206.53125 275.644531 196.839844 275.644531 196.839844 C 275.644531 196.839844 273.578125 180.3125 267.140625 175.015625 C 260.703125 169.703125 251.933594 166.855469 247.484375 167.328125 C 243.035156 167.816406 240.792969 168.292969 240.792969 168.292969 C 240.792969 168.292969 220.550781 158.265625 198.570312 154.644531 C 176.578125 151.023438 155.894531 147.878906 150.230469 149.15625 C 144.582031 150.453125 136.203125 157.476562 134.011719 160.355469 C 131.816406 163.234375 130.035156 166.378906 130.035156 166.378906 C 130.035156 166.378906 122.289062 166.917969 118.988281 172.371094 C 115.675781 177.828125 114.226562 183.757812 113.78125 188.648438 C 113.339844 193.53125 114.242188 196.238281 114.242188 196.238281 C 114.242188 196.238281 114.445312 213.394531 115.773438 216.257812 C 117.097656 219.121094 119.730469 220.6875 119.730469 220.6875 C 119.730469 220.6875 125.125 220.828125 127.542969 220.78125 C 129.96875 220.71875 134.625 220.574219 134.703125 219.535156 C 134.769531 218.488281 137.636719 213.332031 137.636719 213.332031 C 137.636719 213.332031 146.476562 213.207031 148.066406 214.027344 C 149.660156 214.867188 152.863281 218.253906 154.742188 219.390625 C 156.601562 220.527344 177.792969 219.5625 177.792969 219.5625 L 184.449219 213.917969 L 247.277344 214.644531 L 272.617188 215.609375 " fill-opacity="1" fill-rule="evenodd"/><g clip-path="url(#id3)"><path fill="#000000" d="M 174.921875 182.210938 C 174.921875 182.210938 167.160156 171.15625 161.226562 170.570312 C 155.292969 169.984375 146.886719 175.140625 139.53125 173.921875 C 132.195312 172.707031 127.257812 169.351562 124.070312 169.480469 C 120.898438 169.621094 118.988281 172.371094 118.988281 172.371094 C 118.988281 172.371094 122.066406 170.367188 126.121094 171.835938 C 130.175781 173.289062 139.234375 179.363281 148.824219 177.179688 C 158.433594 175.015625 160.183594 172.753906 163.859375 174.003906 C 167.539062 175.265625 174.921875 182.210938 174.921875 182.210938 Z M 151.113281 188.363281 C 151.113281 188.363281 131.800781 183.886719 131.722656 185.722656 C 131.628906 187.554688 135.222656 198.6875 140.226562 202.707031 C 145.242188 206.722656 147.4375 206.707031 147.4375 206.707031 C 147.4375 206.707031 147.199219 198.734375 148.164062 195.890625 C 149.125 193.042969 151.113281 188.363281 151.113281 188.363281 Z M 169.839844 209.441406 C 169.839844 209.441406 170.597656 201.648438 170.296875 198.339844 C 170.015625 195.035156 168.625 189.625 168.625 189.625 C 168.625 189.625 166.511719 186.417969 163.230469 185.371094 C 160.421875 184.488281 157.976562 186.019531 156.492188 187.050781 C 152.613281 189.722656 149.046875 198.199219 150.371094 206.199219 C 150.71875 208.273438 151.839844 210.820312 152.625 212.542969 C 154.789062 217.238281 157.691406 219.722656 160.640625 218.949219 C 163.214844 218.265625 166.292969 215.941406 168.152344 213.382812 C 169.210938 211.925781 169.839844 209.554688 169.839844 209.441406 Z M 272.097656 183.917969 C 272.097656 183.917969 276.59375 192.917969 275.503906 200.316406 C 274.398438 207.734375 274.777344 208.507812 274.855469 208.652344 C 274.933594 208.796875 276.449219 211.023438 275.425781 212.382812 C 274.398438 213.742188 272.710938 214.976562 272.710938 214.976562 L 240.003906 214.550781 C 240.003906 214.550781 243.394531 220.464844 248.367188 221.398438 C 253.320312 222.332031 258.574219 222.316406 258.574219 222.316406 L 265.167969 221.921875 C 265.167969 221.921875 276.277344 218.253906 277.964844 208.828125 C 279.667969 199.402344 279.023438 191.605469 276.085938 188.046875 C 273.167969 184.488281 272.097656 183.917969 272.097656 183.917969 Z M 270.484375 207.464844 C 270.484375 207.464844 274.003906 199.765625 273.375 196.964844 C 272.742188 194.148438 270.832031 193.4375 269.035156 194.148438 C 267.234375 194.859375 251.964844 199.433594 251.964844 199.433594 L 211.761719 198.71875 C 211.761719 198.71875 193.539062 192.820312 188.460938 193.660156 C 183.394531 194.5 183.757812 195.90625 183.15625 197.882812 C 182.558594 199.859375 184.609375 207.59375 184.609375 207.59375 C 184.609375 207.59375 204.203125 208.210938 204.804688 207.910156 C 205.386719 207.625 207.234375 206.027344 207.234375 206.027344 L 256.222656 206.550781 C 256.222656 206.550781 257.613281 207.625 258.101562 207.734375 C 258.574219 207.847656 268.453125 207.910156 269.050781 207.8125 C 269.664062 207.734375 270.484375 207.464844 270.484375 207.464844 Z M 119.210938 186.65625 C 117.476562 186.65625 116.226562 193.3125 116.433594 201.535156 C 116.652344 209.761719 118.230469 216.433594 119.96875 216.433594 C 121.703125 216.433594 122.949219 209.761719 122.730469 201.535156 C 122.523438 193.3125 120.945312 186.65625 119.210938 186.65625 Z M 187.8125 213.933594 C 187.8125 213.933594 185.792969 217.382812 183.710938 219.34375 C 181.625 221.320312 181.011719 221.335938 181.011719 221.335938 L 158.640625 221.460938 L 157.265625 220.953125 C 157.265625 220.953125 163.515625 221.191406 166.292969 218.328125 C 169.082031 215.453125 170.425781 211.546875 170.425781 211.546875 C 170.425781 211.546875 172.492188 213.554688 173.5 213.710938 C 174.496094 213.886719 187.8125 213.933594 187.8125 213.933594 Z M 241.660156 168.230469 C 241.660156 168.230469 240.554688 169.480469 237.78125 169.714844 C 235.019531 169.953125 214.902344 167.628906 207.769531 167.46875 C 200.640625 167.296875 189.089844 167.835938 189.089844 167.835938 C 189.089844 167.835938 184.671875 165.824219 178.359375 165.699219 C 172.066406 165.589844 165.550781 166.253906 165.550781 166.253906 C 165.550781 166.253906 157.34375 167.40625 156.367188 168.085938 C 155.386719 168.753906 153.386719 168.402344 152.566406 167.375 C 151.742188 166.347656 152.105469 164.910156 150.6875 164.199219 C 149.265625 163.484375 140.871094 160.8125 140.242188 162.648438 C 139.625 164.496094 143.207031 167.753906 143.207031 167.753906 L 133.109375 165.824219 C 133.109375 165.824219 139.5625 157.253906 144.3125 154.914062 C 149.078125 152.558594 156.144531 151.640625 158.117188 159.59375 C 160.074219 167.566406 159.476562 166.664062 159.476562 166.664062 L 163.925781 166.128906 L 165.882812 165.542969 C 165.882812 165.542969 165.929688 159.675781 162.457031 154.960938 C 158.988281 150.234375 156.144531 148.554688 156.144531 148.554688 C 156.144531 148.554688 179.496094 146.074219 198.96875 148.523438 C 208.039062 149.664062 212.394531 150.328125 215.753906 151.324219 C 217.378906 151.796875 223.785156 154.960938 228.894531 158.394531 C 235.839844 163.042969 241.660156 168.230469 241.660156 168.230469 Z M 138.855469 212.96875 C 138.855469 212.96875 138.066406 216.988281 136.34375 219.453125 C 134.640625 221.921875 134.089844 222.046875 134.089844 222.046875 L 119.097656 221.460938 C 119.097656 221.460938 122.226562 218.238281 122.699219 214.882812 C 123.171875 211.527344 123.960938 205.867188 123.960938 205.867188 C 123.960938 205.867188 128.882812 214.042969 131.296875 214.34375 C 133.726562 214.644531 138.855469 212.96875 138.855469 212.96875 " fill-opacity="1" fill-rule="evenodd"/></g><g clip-path="url(#id4)"><path fill="#000000" d="M 104.617188 222.882812 L 277.886719 222.882812 C 277.886719 222.882812 112.566406 219.5625 106.96875 219.769531 C 100.101562 220.023438 95.023438 222.882812 104.617188 222.882812 " fill-opacity="1" fill-rule="evenodd"/></g><g clip-path="url(#id5)"><path fill="#000000" d="M 160.769531 178.082031 C 163.578125 177.859375 166.699219 181.5 167.160156 183.886719 C 165.738281 183.03125 163.988281 182.101562 161.730469 182.003906 C 159.996094 181.925781 158.371094 182.398438 157.234375 182.96875 C 156.808594 183.175781 156.429688 183.492188 156.082031 183.476562 C 156.445312 180.691406 157.992188 178.289062 160.769531 178.082031 Z M 267.1875 178.082031 C 268.152344 180.011719 269.269531 183.902344 268.152344 186.464844 C 267.488281 187.964844 265.609375 189.40625 263.324219 188.679688 C 262.535156 188.441406 261.554688 187.699219 260.878906 186.96875 C 259.457031 185.5 258.527344 183.757812 257.847656 181.625 C 256.777344 178.304688 256.632812 172.121094 261.570312 172.6875 C 263.953125 172.941406 266.273438 176.28125 267.1875 178.082031 Z M 184.417969 171.757812 C 186.1875 172.453125 187.703125 173.320312 188.980469 174.207031 C 190.257812 175.09375 191.644531 176.074219 192.796875 177.386719 C 193.746094 178.476562 195.179688 180.152344 195.273438 181.910156 C 195.367188 183.695312 194.089844 185.042969 192.921875 185.5 C 191.125 186.226562 188.378906 185.722656 186.675781 185.183594 C 182.777344 183.933594 178.675781 180.816406 176.039062 177.75 C 173.359375 174.636719 173.46875 170.445312 178.613281 170.507812 C 180.964844 170.539062 182.699219 171.09375 184.417969 171.757812 Z M 143.886719 152.574219 C 156.730469 144.871094 162.550781 153.664062 164.632812 165.714844 C 163.152344 165.824219 161.839844 166.109375 160.40625 166.269531 C 159.695312 163.199219 158.988281 160.148438 157.691406 157.554688 C 154.664062 151.546875 149.738281 151.308594 144.4375 154.472656 C 139.800781 157.238281 136.09375 161.222656 133.300781 165.445312 C 132.574219 165.382812 131.753906 165.398438 130.964844 165.398438 C 133.898438 160.226562 138.902344 155.5625 143.886719 152.574219 Z M 115.503906 184.027344 C 116.734375 181.277344 119.085938 180.691406 119.96875 183.742188 C 119.335938 182.730469 117.808594 182.96875 117.113281 183.664062 C 115.125 185.640625 114.683594 190.796875 114.113281 194.117188 C 114.242188 190.703125 114.304688 186.6875 115.503906 184.027344 Z M 152.4375 212.164062 C 152.265625 211.765625 151.761719 210.929688 151.789062 210.535156 C 151.824219 210.34375 152.296875 209.855469 152.535156 209.570312 C 154.347656 207.339844 156.667969 205.015625 159.113281 203.8125 C 159.175781 203.828125 159.207031 203.875 159.207031 203.957031 C 159.316406 204.855469 158.859375 206.390625 158.605469 207.355469 C 157.738281 210.597656 156.351562 213.425781 155.152344 216.117188 C 154.03125 215.058594 153.164062 213.679688 152.4375 212.164062 Z M 155.578125 198.6875 C 157.03125 199.082031 158.558594 199.558594 159.476562 200.492188 C 158.308594 201.21875 156.824219 201.566406 155.34375 201.914062 C 153.8125 202.277344 152.136719 202.484375 150.371094 202.5625 C 150.386719 201.015625 150.464844 199.402344 150.6875 198.136719 C 150.71875 197.992188 150.640625 197.660156 150.875 197.628906 C 152.4375 197.992188 154.046875 198.277344 155.578125 198.6875 Z M 161.226562 184.441406 C 160.894531 184.738281 161.050781 185.4375 161.050781 186.003906 C 161.050781 189.847656 161.148438 194.292969 160.453125 197.488281 C 158.859375 195.808594 158.132812 192.757812 157.359375 190.070312 C 157.25 189.640625 157.140625 189.121094 157.042969 188.628906 C 156.949219 188.15625 156.777344 187.601562 156.761719 187.207031 C 156.761719 186.796875 156.964844 186.339844 156.539062 186.242188 C 156.097656 186.132812 155.277344 187.082031 154.929688 187.445312 C 150.78125 191.730469 148.839844 200.886719 150.875 208.652344 C 151.050781 209.316406 151.238281 209.964844 151.285156 210.582031 C 151.777344 211.464844 152.105469 212.464844 152.578125 213.394531 C 154.09375 216.386719 157.472656 220.480469 162.0625 218.519531 C 162.472656 218.347656 162.867188 218.15625 163.261719 217.921875 C 163.578125 217.714844 164.066406 217.542969 164.128906 217.128906 C 163.71875 217.207031 163.609375 217.574219 163.214844 217.652344 C 162.550781 213.238281 161.683594 208.574219 162.015625 203.480469 C 162.710938 203.957031 163.085938 204.808594 163.578125 205.566406 C 164.777344 207.417969 165.882812 209.457031 166.75 211.734375 C 166.875 212.082031 166.90625 212.796875 167.441406 212.796875 C 167.773438 212.636719 167.472656 212.289062 167.394531 212.113281 C 166.273438 209.570312 165.011719 207.324219 163.625 204.96875 C 163.355469 204.492188 162.550781 202.691406 161.824219 202.800781 C 161.382812 202.847656 161.226562 203.636719 161.226562 204.222656 C 161.226562 206.59375 161.589844 208.96875 161.875 211.230469 C 162.15625 213.585938 162.363281 215.769531 162.929688 217.777344 C 160.609375 219.359375 156.777344 218.0625 155.433594 216.449219 C 155.785156 216.257812 155.796875 215.703125 155.988281 215.246094 C 157.25 212.050781 158.828125 208.90625 159.570312 205.09375 C 159.695312 204.492188 159.824219 203.621094 159.476562 203.402344 C 158.828125 202.957031 157.457031 204.066406 156.996094 204.414062 C 154.882812 205.964844 153.339844 208.066406 151.617188 209.949219 C 150.875 208.019531 150.542969 205.695312 150.371094 203.210938 C 152.816406 202.660156 155.484375 202.234375 158.007812 201.601562 C 158.605469 201.441406 159.917969 201.15625 159.996094 200.492188 C 160.074219 199.652344 158.796875 199.226562 158.339844 199.019531 C 156.097656 198.007812 153.449219 197.738281 150.828125 197.21875 C 151.695312 192.917969 153.210938 189.261719 156.351562 187.253906 C 157.125 190.132812 157.722656 193.167969 158.84375 195.871094 C 159.015625 196.316406 159.710938 198.023438 160.359375 198.039062 C 161.195312 198.074219 161.398438 196.332031 161.464844 195.367188 C 161.621094 192.949219 161.511719 190.574219 161.511719 188.125 C 161.511719 186.90625 161.433594 185.578125 161.367188 184.582031 C 161.382812 184.472656 161.335938 184.441406 161.226562 184.441406 Z M 130.585938 190.339844 C 130.523438 192.601562 130.902344 195.003906 131.089844 197.441406 C 131.28125 199.8125 131.46875 202.484375 131.042969 204.777344 C 130.539062 204.429688 130.414062 203.734375 130.222656 203.117188 C 128.835938 198.6875 128.457031 191.429688 128.519531 186.796875 C 128.472656 186.71875 128.441406 186.636719 128.28125 186.65625 C 125.679688 190.085938 127.097656 199.496094 128.738281 203.8125 C 128.945312 204.367188 129.433594 205.613281 130.695312 205.679688 C 131.578125 205.613281 131.644531 202.691406 131.644531 201.773438 C 131.644531 198.910156 131.484375 196.457031 131.1875 193.898438 C 131.042969 192.648438 130.949219 191.414062 130.585938 190.339844 Z M 212.535156 200.300781 C 213.183594 199.605469 213.65625 199.8125 214.554688 199.828125 C 226.007812 199.574219 239.515625 199.828125 252.058594 200.238281 C 253.273438 201.976562 254.519531 203.96875 255.71875 205.664062 C 255.910156 205.914062 256.128906 205.929688 256.082031 206.136719 C 254.519531 206.042969 252.183594 206.214844 250.210938 206.167969 C 236.152344 205.867188 221.921875 205.644531 207.785156 205.472656 C 207.867188 204.839844 212.03125 200.855469 212.535156 200.300781 Z M 270.691406 194.910156 C 273.386719 194.734375 272.867188 197.660156 272.617188 199.402344 C 269.507812 199.226562 263.542969 199.636719 260.136719 199.828125 C 259.929688 199.84375 258.746094 199.75 258.761719 200.175781 C 258.761719 200.414062 259.09375 200.414062 259.316406 200.445312 C 262.28125 200.871094 269.207031 201.125 272.1875 201.03125 C 271.90625 202.136719 271.433594 203.070312 271.007812 204.035156 C 268.121094 204.316406 265.261719 204.316406 262.265625 204.367188 C 261.746094 204.382812 259.441406 204.175781 259.585938 204.824219 C 259.664062 205.109375 260.339844 205.09375 260.734375 205.125 C 263.953125 205.347656 267.835938 205.363281 270.265625 205.613281 C 270.0625 206.328125 269.710938 206.898438 269.398438 207.480469 C 266.730469 207.972656 263.054688 207.957031 260.230469 207.765625 C 259.503906 207.71875 258.511719 207.574219 257.972656 207.292969 C 257.40625 206.992188 256.949219 206.230469 256.460938 205.613281 C 254.992188 203.734375 254.265625 202.246094 252.941406 200.332031 C 256.460938 198.453125 266.9375 195.148438 270.691406 194.910156 Z M 183.914062 196.507812 C 187.84375 191.242188 206.175781 197.328125 211.761719 199.796875 C 211.539062 200.507812 206.414062 205.964844 205.8125 206.515625 C 205.46875 206.832031 204.992188 207.417969 204.664062 207.496094 C 204.1875 207.625 203.464844 207.5625 202.816406 207.574219 C 196.09375 207.847656 189.53125 207.402344 184.609375 207.59375 C 184.402344 207.148438 184.386719 206.515625 184.324219 205.929688 C 190.699219 205.664062 197.339844 205.644531 203.824219 205.171875 C 204.203125 205.140625 204.695312 205.15625 205.023438 204.917969 C 204.773438 204.636719 204.300781 204.714844 203.96875 204.699219 C 201.410156 204.585938 187.542969 203.71875 183.992188 203.71875 C 183.867188 202.675781 183.773438 202.089844 183.628906 201.0625 C 186.15625 200.761719 208.210938 200.949219 208.480469 200.429688 C 208.417969 200.144531 208.054688 200.269531 207.878906 200.253906 C 199.804688 200.015625 191.394531 199.304688 183.363281 199.445312 C 182.96875 197.691406 183.109375 197.582031 183.914062 196.507812 Z M 207.234375 206.027344 C 215.21875 206.296875 223.34375 206.296875 231.703125 206.46875 C 239.214844 206.625 247.136719 206.800781 254.851562 206.785156 C 255.355469 206.785156 256.207031 206.816406 256.585938 206.878906 C 257.042969 206.976562 257.296875 207.75 257.847656 207.941406 C 258.667969 208.226562 259.804688 208.304688 260.78125 208.351562 C 262.898438 208.476562 265.074219 208.558594 267.316406 208.335938 C 268.59375 208.226562 269.761719 208.117188 270.484375 207.464844 C 271.84375 206.246094 273.34375 201.265625 273.625 199.890625 C 273.972656 198.136719 274.304688 195.460938 273.34375 194.039062 C 273.183594 193.800781 272.332031 193.136719 271.921875 193.058594 C 271.148438 192.867188 269.933594 193.152344 268.972656 193.328125 C 266.777344 193.722656 253.429688 198.007812 251.394531 199.179688 C 238.585938 198.625 225.613281 198.703125 212.804688 198.292969 C 209.554688 196.871094 206.003906 195.730469 202.265625 194.765625 C 198.554688 193.800781 194.609375 192.835938 190.398438 192.648438 C 188.363281 192.570312 185.523438 192.710938 183.835938 194.039062 C 183.015625 194.6875 182.449219 195.96875 182.429688 196.980469 C 182.226562 198.054688 183.234375 206.042969 183.363281 206.59375 C 183.503906 207.246094 183.597656 208.050781 184.011719 208.289062 C 184.308594 208.476562 200.859375 208.226562 202.3125 208.144531 C 203.179688 208.097656 204.15625 208.117188 204.804688 207.910156 C 205.765625 207.609375 206.414062 206.582031 207.234375 206.027344 Z M 167.441406 192.09375 C 167.394531 192.09375 167.347656 192.09375 167.300781 192.09375 C 165.644531 194.292969 163.859375 196.710938 162.519531 199.433594 C 162.363281 199.75 161.96875 200.351562 162.0625 200.667969 C 162.21875 201.253906 163.121094 200.871094 163.53125 200.710938 C 164.695312 200.300781 165.4375 199.957031 166.480469 199.527344 C 166.9375 199.320312 167.554688 199.273438 167.757812 198.785156 C 167.300781 198.609375 166.890625 198.988281 166.527344 199.148438 C 165.34375 199.683594 164.082031 200.269531 162.566406 200.539062 C 163.765625 197.519531 165.800781 194.925781 167.492188 192.234375 C 167.503906 192.160156 167.441406 192.160156 167.441406 192.09375 Z M 175.535156 210.769531 C 175.566406 211.386719 256.695312 213.078125 268.84375 213.078125 C 269.792969 213.078125 270.816406 213.207031 271.734375 212.890625 C 271.023438 212.511719 269.996094 212.589844 268.972656 212.574219 C 266.085938 212.527344 263.039062 212.335938 260.058594 212.335938 C 249.785156 212.335938 177.097656 210.074219 175.535156 210.769531 Z M 138.773438 214.960938 C 138.742188 214.960938 138.710938 214.960938 138.679688 214.960938 C 138.222656 215.4375 138.066406 216.117188 137.8125 216.671875 C 137.292969 217.824219 136.535156 218.789062 135.746094 219.722656 C 135.367188 220.148438 134.828125 220.542969 134.734375 221.148438 C 135.398438 221.191406 135.808594 220.542969 136.203125 220.132812 C 137.355469 218.902344 138.253906 216.910156 138.824219 215.101562 C 138.804688 215.070312 138.773438 215.023438 138.773438 214.960938 Z M 126.359375 215.058594 C 126.324219 215.058594 126.3125 215.070312 126.3125 215.101562 C 125.789062 217.050781 125.175781 218.902344 124.101562 220.273438 C 123.914062 220.527344 123.550781 220.671875 123.550781 221.050781 C 124.210938 221.148438 124.574219 220.5625 124.890625 220.132812 C 125.773438 218.929688 126.4375 217.082031 126.546875 215.199219 C 126.453125 215.183594 126.453125 215.070312 126.359375 215.058594 Z M 129.8125 216.164062 C 129.765625 216.164062 129.71875 216.164062 129.671875 216.164062 C 129.246094 217.035156 128.929688 217.902344 128.519531 218.757812 C 128.125 219.582031 127.445312 220.132812 126.910156 220.828125 C 127.367188 221.035156 127.824219 220.605469 128.0625 220.371094 C 128.945312 219.453125 129.433594 217.730469 129.8125 216.304688 C 129.8125 216.257812 129.8125 216.210938 129.8125 216.164062 Z M 134.230469 216.210938 C 134.152344 216.195312 134.152344 216.257812 134.089844 216.257812 C 133.664062 217.253906 133.21875 218.171875 132.652344 218.980469 C 132.101562 219.785156 131.25 220.242188 130.679688 221.003906 C 131.546875 221.035156 132.371094 220.179688 132.796875 219.582031 C 133.441406 218.679688 133.867188 217.476562 134.230469 216.355469 C 134.308594 216.324219 134.230469 216.273438 134.230469 216.210938 Z M 174.667969 216.402344 C 174.621094 216.386719 174.621094 216.417969 174.621094 216.449219 C 173.660156 217.507812 172.902344 218.742188 171.859375 219.722656 C 171.023438 220.496094 169.96875 220.972656 169.097656 221.746094 C 169.886719 221.953125 170.550781 221.257812 171.167969 220.875 C 172.304688 220.148438 172.996094 219.230469 173.785156 218.0625 C 174.164062 217.492188 174.558594 217.035156 174.667969 216.402344 Z M 180.191406 216.496094 C 180.144531 216.511719 180.113281 216.542969 180.050781 216.542969 C 179.085938 218.015625 178.09375 219.46875 176.734375 220.542969 C 176.292969 220.910156 175.675781 221.113281 175.441406 221.699219 C 176.089844 221.777344 176.53125 221.191406 176.957031 220.828125 C 177.398438 220.433594 177.792969 220.023438 178.15625 219.582031 C 178.898438 218.695312 179.671875 217.652344 180.144531 216.621094 C 180.191406 216.621094 180.175781 216.542969 180.191406 216.496094 Z M 262.945312 216.671875 C 262.898438 216.671875 262.847656 216.671875 262.816406 216.671875 C 261.980469 217.667969 261.066406 218.726562 259.914062 219.582031 C 258.808594 220.402344 257.546875 221.320312 256.191406 221.605469 C 255.941406 221.667969 255.402344 221.570312 255.355469 221.890625 C 255.277344 222.394531 256.113281 222.109375 256.507812 221.984375 C 257.707031 221.570312 258.746094 220.84375 259.679688 220.179688 C 260.246094 219.769531 260.925781 219.277344 261.523438 218.710938 C 262.046875 218.203125 262.960938 217.335938 262.945312 216.671875 Z M 266.667969 217.871094 C 265.105469 219.089844 263.6875 220.101562 261.792969 221.003906 C 261.335938 221.222656 260.8125 221.460938 260.324219 221.554688 C 259.519531 221.730469 258.433594 221.523438 257.753906 221.933594 C 257.910156 222.425781 258.527344 222.300781 258.90625 222.300781 C 260.515625 222.300781 261.460938 221.953125 262.441406 221.429688 C 264.175781 220.480469 265.484375 219.390625 266.636719 218.015625 C 266.652344 217.980469 266.683594 217.933594 266.667969 217.871094 Z M 272.742188 215.007812 C 272.507812 214.742188 272.253906 214.710938 271.921875 214.691406 C 269.886719 214.535156 267.820312 214.628906 265.753906 214.550781 C 239.5 213.570312 211.367188 213.585938 185.191406 213.585938 C 181.058594 213.585938 177.808594 213.507812 173.753906 213.347656 C 172.003906 211.816406 171.339844 209.363281 171.214844 206.246094 C 170.960938 200 171.292969 193.027344 170.15625 187.492188 C 169.382812 183.648438 167.835938 177.84375 161.085938 177.703125 C 158.574219 177.734375 157.171875 179.679688 156.351562 181.578125 C 156.082031 182.210938 155.6875 182.953125 155.796875 183.695312 C 145.179688 189.925781 143.222656 214.613281 154.664062 220.386719 C 155.023438 220.574219 155.5 220.75 155.957031 220.890625 C 156.414062 221.035156 157.628906 221.113281 157.960938 221.097656 C 158.339844 221.082031 158.355469 220.875 158.65625 220.828125 C 159.492188 220.703125 160.183594 220.921875 160.863281 220.828125 C 163.988281 220.371094 166.242188 218.601562 168.042969 216.671875 C 168.738281 215.925781 169.496094 215.101562 169.839844 214.042969 C 169.507812 213.980469 169.335938 214.375 169.195312 214.550781 C 167.945312 216.148438 166.636719 217.632812 164.824219 218.757812 C 162.773438 220.007812 159.679688 220.671875 156.949219 219.769531 C 152.390625 218.378906 150.179688 214.375 148.96875 210.15625 C 145.289062 197.390625 154.585938 177.796875 166.292969 184.074219 C 166.433594 184.1875 166.734375 184.472656 166.84375 184.488281 C 167.191406 184.519531 167.160156 184.28125 167.347656 184.25 C 168.546875 188.648438 169.097656 194.023438 169.097656 199.75 C 169.097656 202.660156 168.957031 205.550781 169.320312 208.050781 C 169.683594 210.4375 170.785156 213.523438 172.824219 214.753906 C 177.539062 214.691406 182.414062 214.660156 187.179688 214.710938 C 186.738281 216.242188 182.449219 220.339844 181.058594 221.097656 C 180.695312 221.304688 180.175781 221.398438 179.953125 221.84375 C 182.652344 221.445312 186.613281 217.097656 187.828125 214.710938 C 211.601562 215.070312 235.539062 214.960938 259.171875 215.339844 C 257.59375 218.265625 254.976562 220.84375 250.621094 221.050781 C 246.742188 221.257812 243.632812 219.328125 241.929688 217.175781 C 241.789062 217 241.628906 216.859375 241.503906 216.671875 C 241.425781 216.527344 241.4375 216.242188 241.1875 216.210938 C 240.839844 216.339844 241.3125 216.574219 241.375 216.71875 C 243.429688 219.453125 246.394531 221.96875 251.269531 221.476562 C 255.558594 221.035156 258.289062 218.519531 259.820312 215.339844 C 262.753906 215.386719 265.941406 215.515625 269.019531 215.515625 C 270.0625 215.515625 271.164062 215.386719 272.109375 215.46875 C 272.410156 215.5 272.363281 215.640625 272.617188 215.609375 C 273.972656 215.121094 275.28125 213.742188 276.007812 212.476562 C 276.292969 212.003906 276.464844 211.515625 276.292969 210.867188 C 276.070312 210.042969 275.28125 209.238281 275.140625 208.460938 C 274.984375 207.542969 275.347656 206.199219 275.503906 205.140625 C 275.976562 202.167969 276.214844 198.75 275.882812 195.320312 C 275.441406 190.925781 274.699219 187.507812 273.136719 184.488281 C 275.597656 186.8125 277.097656 189.957031 278.21875 193.800781 C 279.367188 197.691406 279.574219 202.722656 278.5 207.039062 C 277.539062 210.929688 275.597656 214.171875 273.246094 216.765625 C 271.179688 219.058594 268.039062 221.097656 264.332031 221.890625 C 264.082031 221.933594 263.71875 221.933594 263.734375 222.207031 C 263.75 222.601562 264.933594 222.238281 265.203125 222.15625 C 268.90625 221.207031 271.449219 219.21875 273.71875 216.957031 C 276.246094 214.40625 278.21875 210.660156 279.148438 206.675781 C 280.207031 202.039062 279.746094 196.839844 278.40625 192.980469 C 277.222656 189.53125 276.039062 186.730469 273.640625 184.488281 C 273.324219 184.203125 272.773438 183.839844 272.585938 183.476562 C 271.953125 182.289062 271.402344 181.164062 270.613281 180.105469 C 269.855469 179.0625 269.019531 177.75 268.324219 176.660156 C 266.699219 174.113281 264.789062 172.261719 261.933594 171.644531 C 258.605469 169.636719 254.945312 168.246094 250.417969 167.296875 C 244.324219 166 242.195312 167.867188 240.035156 168.578125 C 238.378906 169.070312 237.542969 168.847656 235.933594 168.832031 C 232.921875 168.816406 229.132812 168.578125 225.773438 168.339844 C 215.941406 167.691406 206.113281 166.664062 195.542969 167.152344 C 192.277344 167.296875 190.621094 167.707031 187.683594 166.601562 C 181.089844 164.101562 174.148438 164.734375 167.207031 165.398438 C 166.636719 161.667969 163.859375 152.859375 159.839844 150.359375 C 174.859375 148.621094 201.855469 147.796875 214.792969 151.941406 C 224.304688 154.992188 231.089844 159.910156 239.214844 166.410156 C 239.152344 166.109375 238.867188 165.921875 238.664062 165.714844 C 237.195312 164.261719 235.398438 162.914062 233.691406 161.621094 C 229.085938 158.140625 224.210938 155.199219 218.925781 152.289062 C 205.59375 144.949219 163.957031 145.394531 150.230469 149.15625 C 148.335938 149.679688 145.039062 151.339844 143.476562 152.304688 C 137.324219 156.050781 134.230469 159.53125 130.269531 165.496094 C 122.460938 166.09375 117.898438 171.664062 115.453125 178.445312 C 113.894531 182.746094 112.964844 187.679688 113.339844 193.53125 C 113.390625 194.277344 113.5625 194.988281 113.609375 195.699219 C 113.40625 201.378906 112.566406 210.089844 115.773438 218.632812 C 116.308594 219.894531 118.136719 221.003906 119.730469 220.6875 C 122.601562 220.101562 123.960938 210.710938 123.328125 210.582031 C 122.839844 213.980469 121.957031 217.082031 121.121094 218.613281 C 120.757812 219.246094 120.300781 220.132812 119.507812 220.132812 C 118.296875 220.132812 117.144531 218.03125 116.75 216.957031 C 114.335938 210.359375 114.195312 200.175781 115.21875 191.589844 C 115.503906 189.328125 116.023438 186.75 117.0625 184.992188 C 117.378906 184.441406 117.996094 183.710938 118.582031 183.695312 C 119.527344 183.695312 120.125 185.136719 120.519531 186.003906 C 122.414062 190.242188 122.902344 199.605469 123.738281 204.542969 C 123.878906 205.394531 124.007812 206.46875 124.289062 207.179688 C 124.953125 208.828125 128.710938 212.875 129.9375 213.902344 C 130.445312 214.316406 131.027344 214.867188 131.546875 214.960938 C 132.195312 215.089844 133.046875 214.804688 133.726562 214.644531 C 139.484375 213.238281 141.882812 213.773438 147.515625 215.246094 C 147.769531 215.308594 148.164062 215.546875 148.445312 215.246094 C 148.445312 214.488281 147.734375 213.285156 147.230469 213.078125 C 145.101562 212.226562 139.53125 211.625 134.5625 212.953125 C 133.914062 213.144531 132.289062 213.253906 131.613281 213.175781 C 130.285156 213.03125 125.519531 207.765625 125.144531 206.898438 C 124.84375 206.199219 124.714844 204.746094 124.589844 203.8125 C 123.800781 197.820312 123.503906 190.273438 121.433594 184.644531 C 120.945312 183.238281 120.234375 181.734375 119.367188 181.132812 C 118.21875 180.359375 116.511719 181.101562 115.363281 183.332031 C 114.128906 185.769531 114.207031 189.261719 113.800781 192.507812 C 113.5 188.15625 114.195312 183.460938 115.453125 179.742188 C 116.464844 176.753906 119.335938 170.378906 122.996094 169.953125 C 125.222656 169.703125 127.335938 170.523438 128.882812 171.25 C 130.460938 171.992188 132.132812 172.785156 133.992188 173.273438 C 135.933594 173.796875 138.300781 174.128906 140.433594 173.828125 C 141.976562 173.621094 143.539062 173.308594 144.945312 172.957031 C 145.386719 172.847656 145.90625 172.832031 146.238281 172.5 C 145.402344 172.484375 144.519531 172.738281 143.570312 172.863281 C 142.625 172.988281 141.664062 173.101562 140.714844 173.195312 C 138.804688 173.351562 136.832031 173.035156 135.144531 172.5 C 131.863281 171.457031 129.261719 169.714844 125.902344 168.988281 C 125.835938 168.972656 125.804688 168.957031 125.757812 168.941406 C 124.859375 168.847656 124.054688 168.894531 123.3125 169.035156 C 124.890625 167.898438 126.640625 166.886719 130.035156 166.378906 C 134.183594 165.761719 137.054688 166.773438 140.527344 167.328125 C 140.226562 166.902344 139.59375 166.792969 139.105469 166.648438 C 137.542969 166.160156 135.699219 165.761719 133.898438 165.496094 C 135.746094 162.125 141.726562 156.070312 145.226562 154.425781 C 155.863281 149.410156 157.015625 158.597656 158.988281 166.933594 C 157.789062 167.582031 154.648438 169.101562 153.371094 167.613281 C 152.660156 166.804688 152.515625 165.066406 151.808594 164.339844 C 150.53125 163.027344 145.257812 161.398438 141.710938 161.585938 C 140.777344 161.652344 139.769531 162.238281 139.660156 163.042969 C 139.359375 165.191406 142.8125 169.417969 146.113281 169.558594 C 148.273438 169.714844 150.511719 169.351562 152.058594 169.875 C 152.707031 170.222656 153.683594 171.457031 154.316406 171.835938 C 154.316406 171.835938 153.921875 170.316406 152.578125 169.273438 C 151.917969 168.910156 151.144531 168.988281 150.230469 168.941406 C 148.476562 168.863281 146.457031 169.019531 145.132812 168.484375 C 143.667969 167.898438 140.035156 164.085938 140.839844 162.980469 C 142.152344 161.175781 149.3125 163.421875 151.066406 165.003906 C 152.058594 165.890625 151.730469 168.753906 154.742188 169.382812 C 155.46875 169.542969 156.351562 169.335938 157.0625 169.210938 C 165.40625 167.660156 169.195312 171.378906 174.117188 177.734375 C 176.6875 181.070312 180.726562 185.121094 186.753906 186.371094 C 189.265625 186.875 192.007812 186.84375 194.074219 185.863281 C 195.257812 185.324219 196.0625 184.328125 196.09375 182.875 C 196.140625 181.433594 195.527344 180.234375 194.863281 179.140625 C 193.570312 177.023438 191.851562 175.441406 189.941406 174.113281 C 188.03125 172.785156 185.730469 171.597656 183.265625 170.792969 C 180.601562 169.90625 176.910156 169.398438 174.890625 170.824219 C 173.59375 171.742188 172.695312 173.75 174.117188 175.964844 C 173.832031 175.851562 173.722656 175.566406 173.5625 175.363281 C 170.867188 172.011719 167.347656 168.246094 163.074219 167.375 C 169.761719 166.601562 181.65625 165.746094 188 168.167969 C 194.421875 170.617188 200.039062 174.320312 205.121094 178.210938 C 208.132812 180.519531 210.941406 182.90625 213.71875 185.453125 C 214.113281 185.816406 214.429688 186.308594 214.964844 186.464844 C 214.855469 185.832031 214.269531 185.4375 213.859375 184.992188 C 212.613281 183.632812 211.210938 182.289062 209.804688 181.023438 C 204.234375 176.011719 198.035156 171.726562 190.90625 168.246094 C 203.824219 167.535156 216.542969 168.71875 228.769531 169.589844 C 230.773438 169.734375 232.855469 169.828125 235.019531 169.953125 C 236.5625 170.0625 238.109375 170.207031 239.53125 170.429688 C 240.050781 170.507812 240.589844 170.460938 240.996094 170.601562 C 241.738281 170.855469 242.65625 171.742188 243.300781 172.308594 C 246.25 174.886719 255.828125 189.089844 256.191406 189.183594 C 253.984375 184.25 246.742188 171.960938 241.878906 169.179688 C 243.488281 169.179688 244.4375 168.121094 249.785156 168.734375 C 254.0625 169.542969 257.675781 170.507812 260.925781 172.089844 C 257.769531 172.371094 256.394531 174.839844 256.269531 177.84375 C 256.113281 182.179688 258.179688 185.722656 260.371094 187.761719 C 261.460938 188.789062 263.039062 189.59375 264.933594 189.609375 C 268.433594 189.609375 270.171875 186.070312 269.300781 181.863281 C 269.191406 180.628906 268.894531 179.632812 268.464844 178.542969 C 268.464844 178.496094 268.417969 178.496094 268.417969 178.445312 C 270.898438 182.035156 273.421875 186.101562 274.636719 191.082031 C 275.566406 194.910156 275.832031 199.511719 275.140625 203.765625 C 275.03125 204.460938 274.964844 205.171875 274.855469 205.839844 C 274.777344 206.484375 274.714844 207.179688 274.398438 207.734375 C 274.304688 209.285156 275.441406 210.203125 275.328125 211.5625 C 275.265625 212.242188 274.636719 212.984375 274.226562 213.492188 C 273.75 214.078125 273.246094 214.550781 272.742188 215.007812 " fill-opacity="1" fill-rule="evenodd"/></g><g fill="#000000" fill-opacity="1"><g transform="translate(113.631882, 256.930801)"><g><path d="M 9.96875 -16.0625 L 14.296875 -16.0625 L 15.03125 -15.453125 L 15.03125 -13.203125 L 14.296875 -12.59375 L 9.96875 -12.59375 Z M 12.28125 0 L 12.28125 -4.640625 L 9.96875 -5.25 L 9.96875 -8.328125 L 11.546875 -8.328125 L 16.4375 0 L 22.21875 0 L 22.21875 -4.9375 L 20.609375 -5.25 L 18.296875 -8.9375 L 21.3125 -11.5 L 21.3125 -17.859375 L 17.1875 -21.34375 L 1.34375 -21.34375 L 1.34375 -16.671875 L 3.65625 -16.0625 L 3.65625 -5.25 L 1.34375 -4.640625 L 1.34375 0 Z M 12.28125 0 "/></g></g></g><g fill="#000000" fill-opacity="1"><g transform="translate(136.273568, 256.930801)"><g><path d="M 20.453125 -5.25 L 16.34375 -21.34375 L 4.03125 -21.34375 L 4.03125 -16.671875 L 6 -16.0625 L 2.890625 -5.25 L 0.546875 -4.640625 L 0.546875 0 L 9.6875 0 L 9.6875 -4.640625 L 8.203125 -5.25 L 8.71875 -7.140625 L 13.328125 -7.140625 L 13.875 -5.25 L 12.25 -4.640625 L 12.25 0 L 23.078125 0 L 23.078125 -4.640625 Z M 10.9375 -15.578125 L 12.3125 -10.796875 L 9.609375 -10.796875 Z M 10.9375 -15.578125 "/></g></g></g><g fill="#000000" fill-opacity="1"><g transform="translate(159.8904, 256.930801)"><g><path d="M 19.015625 -17.859375 L 14.875 -21.34375 L 6.0625 -21.34375 L 1.34375 -17.40625 L 1.34375 -4.078125 L 6.25 0 L 14.6875 0 C 15.40625 -0.59375 16.128906 -1.1875 16.859375 -1.78125 C 17.585938 -2.382812 18.304688 -2.988281 19.015625 -3.59375 L 19.015625 -7.46875 L 13.328125 -7.46875 L 12.71875 -5.25 L 8.53125 -5.25 L 7.625 -5.96875 L 7.625 -15.359375 L 8.5 -16.0625 L 12.71875 -16.0625 L 13.328125 -13.84375 L 19.015625 -13.84375 Z M 19.015625 -17.859375 "/></g></g></g><g fill="#000000" fill-opacity="1"><g transform="translate(180.307523, 256.930801)"><g><path d="M 20.15625 -13.84375 L 20.15625 -21.34375 L 1.34375 -21.34375 L 1.34375 -16.671875 L 3.65625 -16.0625 L 3.65625 -5.25 L 1.34375 -4.640625 L 1.34375 0 L 20.1875 0 L 20.1875 -7.46875 L 15.671875 -7.46875 L 15.0625 -5.25 L 9.9375 -5.25 L 9.9375 -8.96875 L 15.0625 -8.96875 L 15.0625 -12.625 L 9.9375 -12.625 L 9.9375 -16.0625 L 15.0625 -16.0625 L 15.671875 -13.84375 Z M 20.15625 -13.84375 "/></g></g></g><g fill="#000000" fill-opacity="1"><g transform="translate(201.791216, 256.930801)"><g/></g></g><g fill="#000000" fill-opacity="1"><g transform="translate(213.492971, 256.930801)"><g><path d="M 19.015625 -17.859375 L 14.875 -21.34375 L 6.0625 -21.34375 L 1.34375 -17.40625 L 1.34375 -4.078125 L 6.25 0 L 14.6875 0 C 15.40625 -0.59375 16.128906 -1.1875 16.859375 -1.78125 C 17.585938 -2.382812 18.304688 -2.988281 19.015625 -3.59375 L 19.015625 -7.46875 L 13.328125 -7.46875 L 12.71875 -5.25 L 8.53125 -5.25 L 7.625 -5.96875 L 7.625 -15.359375 L 8.5 -16.0625 L 12.71875 -16.0625 L 13.328125 -13.84375 L 19.015625 -13.84375 Z M 19.015625 -17.859375 "/></g></g></g><g fill="#000000" fill-opacity="1"><g transform="translate(233.910094, 256.930801)"><g><path d="M 20.453125 -5.25 L 16.34375 -21.34375 L 4.03125 -21.34375 L 4.03125 -16.671875 L 6 -16.0625 L 2.890625 -5.25 L 0.546875 -4.640625 L 0.546875 0 L 9.6875 0 L 9.6875 -4.640625 L 8.203125 -5.25 L 8.71875 -7.140625 L 13.328125 -7.140625 L 13.875 -5.25 L 12.25 -4.640625 L 12.25 0 L 23.078125 0 L 23.078125 -4.640625 Z M 10.9375 -15.578125 L 12.3125 -10.796875 L 9.609375 -10.796875 Z M 10.9375 -15.578125 "/></g></g></g><g fill="#000000" fill-opacity="1"><g transform="translate(257.526927, 256.930801)"><g><path d="M 9.96875 -16.0625 L 14.296875 -16.0625 L 15.03125 -15.453125 L 15.03125 -13.203125 L 14.296875 -12.59375 L 9.96875 -12.59375 Z M 12.28125 0 L 12.28125 -4.640625 L 9.96875 -5.25 L 9.96875 -8.328125 L 11.546875 -8.328125 L 16.4375 0 L 22.21875 0 L 22.21875 -4.9375 L 20.609375 -5.25 L 18.296875 -8.9375 L 21.3125 -11.5 L 21.3125 -17.859375 L 17.1875 -21.34375 L 1.34375 -21.34375 L 1.34375 -16.671875 L 3.65625 -16.0625 L 3.65625 -5.25 L 1.34375 -4.640625 L 1.34375 0 Z M 12.28125 0 "/></g></g></g><g fill="#000000" fill-opacity="1"><g transform="translate(50.283598, 282.919578)"><g><path d="M 3.21875 -5.09375 L 3.21875 0 L 1.515625 0 L 1.515625 -13.015625 L 6.3125 -13.015625 C 7.726562 -13.015625 8.835938 -12.648438 9.640625 -11.921875 C 10.453125 -11.191406 10.859375 -10.226562 10.859375 -9.03125 C 10.859375 -7.769531 10.460938 -6.796875 9.671875 -6.109375 C 8.890625 -5.429688 7.765625 -5.09375 6.296875 -5.09375 Z M 3.21875 -6.5 L 6.3125 -6.5 C 7.226562 -6.5 7.929688 -6.710938 8.421875 -7.140625 C 8.910156 -7.578125 9.15625 -8.203125 9.15625 -9.015625 C 9.15625 -9.785156 8.910156 -10.398438 8.421875 -10.859375 C 7.929688 -11.328125 7.257812 -11.570312 6.40625 -11.59375 L 3.21875 -11.59375 Z M 3.21875 -6.5 "/></g></g></g><g fill="#000000" fill-opacity="1"><g transform="translate(69.450257, 282.919578)"><g><path d="M 8.6875 -3.390625 L 3.25 -3.390625 L 2.015625 0 L 0.25 0 L 5.21875 -13.015625 L 6.71875 -13.015625 L 11.6875 0 L 9.9375 0 Z M 3.765625 -4.8125 L 8.1875 -4.8125 L 5.96875 -10.890625 Z M 3.765625 -4.8125 "/></g></g></g><g fill="#000000" fill-opacity="1"><g transform="translate(89.00989, 282.919578)"><g><path d="M 3.234375 -1.40625 L 9.40625 -1.40625 L 9.40625 0 L 1.515625 0 L 1.515625 -13.015625 L 3.234375 -13.015625 Z M 3.234375 -1.40625 "/></g></g></g><g fill="#000000" fill-opacity="1"><g transform="translate(106.479608, 282.919578)"><g><path d="M 3.34375 0 L 1.640625 0 L 1.640625 -13.015625 L 3.34375 -13.015625 Z M 3.34375 0 "/></g></g></g><g fill="#000000" fill-opacity="1"><g transform="translate(119.081798, 282.919578)"><g><path d="M 11.5 0 L 9.78125 0 L 3.234375 -10.03125 L 3.234375 0 L 1.515625 0 L 1.515625 -13.015625 L 3.234375 -13.015625 L 9.796875 -2.9375 L 9.796875 -13.015625 L 11.5 -13.015625 Z M 11.5 0 "/></g></g></g><g fill="#000000" fill-opacity="1"><g transform="translate(139.748909, 282.919578)"><g><path d="M 1.515625 0 L 1.515625 -13.015625 L 5.1875 -13.015625 C 6.3125 -13.015625 7.304688 -12.757812 8.171875 -12.25 C 9.046875 -11.75 9.71875 -11.035156 10.1875 -10.109375 C 10.664062 -9.191406 10.910156 -8.132812 10.921875 -6.9375 L 10.921875 -6.109375 C 10.921875 -4.878906 10.679688 -3.800781 10.203125 -2.875 C 9.734375 -1.957031 9.054688 -1.25 8.171875 -0.75 C 7.296875 -0.257812 6.273438 -0.0078125 5.109375 0 Z M 3.21875 -11.59375 L 3.21875 -1.40625 L 5.03125 -1.40625 C 6.351562 -1.40625 7.378906 -1.816406 8.109375 -2.640625 C 8.847656 -3.460938 9.21875 -4.628906 9.21875 -6.140625 L 9.21875 -6.90625 C 9.21875 -8.382812 8.867188 -9.53125 8.171875 -10.34375 C 7.484375 -11.164062 6.5 -11.582031 5.21875 -11.59375 Z M 3.21875 -11.59375 "/></g></g></g><g fill="#000000" fill-opacity="1"><g transform="translate(159.371064, 282.919578)"><g><path d="M 6.28125 -5.265625 L 3.21875 -5.265625 L 3.21875 0 L 1.5 0 L 1.5 -13.015625 L 5.8125 -13.015625 C 7.269531 -13.015625 8.394531 -12.675781 9.1875 -12 C 9.976562 -11.332031 10.375 -10.363281 10.375 -9.09375 C 10.375 -8.28125 10.15625 -7.570312 9.71875 -6.96875 C 9.28125 -6.375 8.671875 -5.925781 7.890625 -5.625 L 10.9375 -0.109375 L 10.9375 0 L 9.109375 0 Z M 3.21875 -6.671875 L 5.859375 -6.671875 C 6.710938 -6.671875 7.390625 -6.890625 7.890625 -7.328125 C 8.390625 -7.765625 8.640625 -8.351562 8.640625 -9.09375 C 8.640625 -9.894531 8.398438 -10.507812 7.921875 -10.9375 C 7.441406 -11.375 6.753906 -11.59375 5.859375 -11.59375 L 3.21875 -11.59375 Z M 3.21875 -6.671875 "/></g></g></g><g fill="#000000" fill-opacity="1"><g transform="translate(178.260855, 282.919578)"><g><path d="M 11.515625 -6.078125 C 11.515625 -4.804688 11.300781 -3.695312 10.875 -2.75 C 10.445312 -1.800781 9.835938 -1.078125 9.046875 -0.578125 C 8.265625 -0.078125 7.347656 0.171875 6.296875 0.171875 C 5.273438 0.171875 4.367188 -0.078125 3.578125 -0.578125 C 2.785156 -1.078125 2.171875 -1.789062 1.734375 -2.71875 C 1.296875 -3.65625 1.066406 -4.738281 1.046875 -5.96875 L 1.046875 -6.90625 C 1.046875 -8.15625 1.265625 -9.257812 1.703125 -10.21875 C 2.140625 -11.175781 2.753906 -11.910156 3.546875 -12.421875 C 4.347656 -12.929688 5.257812 -13.1875 6.28125 -13.1875 C 7.320312 -13.1875 8.238281 -12.929688 9.03125 -12.421875 C 9.832031 -11.921875 10.445312 -11.191406 10.875 -10.234375 C 11.300781 -9.285156 11.515625 -8.175781 11.515625 -6.90625 Z M 9.8125 -6.921875 C 9.8125 -8.460938 9.5 -9.644531 8.875 -10.46875 C 8.257812 -11.300781 7.394531 -11.71875 6.28125 -11.71875 C 5.195312 -11.71875 4.34375 -11.300781 3.71875 -10.46875 C 3.09375 -9.644531 2.773438 -8.503906 2.765625 -7.046875 L 2.765625 -6.078125 C 2.765625 -4.585938 3.078125 -3.414062 3.703125 -2.5625 C 4.328125 -1.707031 5.191406 -1.28125 6.296875 -1.28125 C 7.398438 -1.28125 8.253906 -1.679688 8.859375 -2.484375 C 9.472656 -3.296875 9.789062 -4.453125 9.8125 -5.953125 Z M 9.8125 -6.921875 "/></g></g></g><g fill="#000000" fill-opacity="1"><g transform="translate(198.463532, 282.919578)"><g><path d="M 3.71875 -13.015625 L 7.984375 -2.390625 L 12.234375 -13.015625 L 14.453125 -13.015625 L 14.453125 0 L 12.734375 0 L 12.734375 -5.0625 L 12.90625 -10.53125 L 8.625 0 L 7.3125 0 L 3.0625 -10.5 L 3.21875 -5.0625 L 3.21875 0 L 1.515625 0 L 1.515625 -13.015625 Z M 3.71875 -13.015625 "/></g></g></g><g fill="#000000" fill-opacity="1"><g transform="translate(222.060095, 282.919578)"><g><path d="M 8.859375 -6.015625 L 3.21875 -6.015625 L 3.21875 -1.40625 L 9.78125 -1.40625 L 9.78125 0 L 1.515625 0 L 1.515625 -13.015625 L 9.6875 -13.015625 L 9.6875 -11.59375 L 3.21875 -11.59375 L 3.21875 -7.421875 L 8.859375 -7.421875 Z M 8.859375 -6.015625 "/></g></g></g><g fill="#000000" fill-opacity="1"><g transform="translate(240.083555, 282.919578)"><g/></g></g><g fill="#000000" fill-opacity="1"><g transform="translate(252.239182, 282.919578)"><g><path d="M 3.71875 -13.015625 L 7.984375 -2.390625 L 12.234375 -13.015625 L 14.453125 -13.015625 L 14.453125 0 L 12.734375 0 L 12.734375 -5.0625 L 12.90625 -10.53125 L 8.625 0 L 7.3125 0 L 3.0625 -10.5 L 3.21875 -5.0625 L 3.21875 0 L 1.515625 0 L 1.515625 -13.015625 Z M 3.71875 -13.015625 "/></g></g></g><g fill="#000000" fill-opacity="1"><g transform="translate(275.835744, 282.919578)"><g><path d="M 11.515625 -6.078125 C 11.515625 -4.804688 11.300781 -3.695312 10.875 -2.75 C 10.445312 -1.800781 9.835938 -1.078125 9.046875 -0.578125 C 8.265625 -0.078125 7.347656 0.171875 6.296875 0.171875 C 5.273438 0.171875 4.367188 -0.078125 3.578125 -0.578125 C 2.785156 -1.078125 2.171875 -1.789062 1.734375 -2.71875 C 1.296875 -3.65625 1.066406 -4.738281 1.046875 -5.96875 L 1.046875 -6.90625 C 1.046875 -8.15625 1.265625 -9.257812 1.703125 -10.21875 C 2.140625 -11.175781 2.753906 -11.910156 3.546875 -12.421875 C 4.347656 -12.929688 5.257812 -13.1875 6.28125 -13.1875 C 7.320312 -13.1875 8.238281 -12.929688 9.03125 -12.421875 C 9.832031 -11.921875 10.445312 -11.191406 10.875 -10.234375 C 11.300781 -9.285156 11.515625 -8.175781 11.515625 -6.90625 Z M 9.8125 -6.921875 C 9.8125 -8.460938 9.5 -9.644531 8.875 -10.46875 C 8.257812 -11.300781 7.394531 -11.71875 6.28125 -11.71875 C 5.195312 -11.71875 4.34375 -11.300781 3.71875 -10.46875 C 3.09375 -9.644531 2.773438 -8.503906 2.765625 -7.046875 L 2.765625 -6.078125 C 2.765625 -4.585938 3.078125 -3.414062 3.703125 -2.5625 C 4.328125 -1.707031 5.191406 -1.28125 6.296875 -1.28125 C 7.398438 -1.28125 8.253906 -1.679688 8.859375 -2.484375 C 9.472656 -3.296875 9.789062 -4.453125 9.8125 -5.953125 Z M 9.8125 -6.921875 "/></g></g></g><g fill="#000000" fill-opacity="1"><g transform="translate(296.03843, 282.919578)"><g><path d="M 1.515625 0 L 1.515625 -13.015625 L 5.1875 -13.015625 C 6.3125 -13.015625 7.304688 -12.757812 8.171875 -12.25 C 9.046875 -11.75 9.71875 -11.035156 10.1875 -10.109375 C 10.664062 -9.191406 10.910156 -8.132812 10.921875 -6.9375 L 10.921875 -6.109375 C 10.921875 -4.878906 10.679688 -3.800781 10.203125 -2.875 C 9.734375 -1.957031 9.054688 -1.25 8.171875 -0.75 C 7.296875 -0.257812 6.273438 -0.0078125 5.109375 0 Z M 3.21875 -11.59375 L 3.21875 -1.40625 L 5.03125 -1.40625 C 6.351562 -1.40625 7.378906 -1.816406 8.109375 -2.640625 C 8.847656 -3.460938 9.21875 -4.628906 9.21875 -6.140625 L 9.21875 -6.90625 C 9.21875 -8.382812 8.867188 -9.53125 8.171875 -10.34375 C 7.484375 -11.164062 6.5 -11.582031 5.21875 -11.59375 Z M 3.21875 -11.59375 "/></g></g></g><g fill="#000000" fill-opacity="1"><g transform="translate(315.660584, 282.919578)"><g><path d="M 8.859375 -6.015625 L 3.21875 -6.015625 L 3.21875 -1.40625 L 9.78125 -1.40625 L 9.78125 0 L 1.515625 0 L 1.515625 -13.015625 L 9.6875 -13.015625 L 9.6875 -11.59375 L 3.21875 -11.59375 L 3.21875 -7.421875 L 8.859375 -7.421875 Z M 8.859375 -6.015625 "/></g></g></g><g fill="#000000" fill-opacity="1"><g transform="translate(333.684045, 282.919578)"><g><path d="M 3.234375 -1.40625 L 9.40625 -1.40625 L 9.40625 0 L 1.515625 0 L 1.515625 -13.015625 L 3.234375 -13.015625 Z M 3.234375 -1.40625 "/></g></g></g></svg>